<?xml version="1.0" encoding="UTF-8"?>
<!DOCTYPE svg PUBLIC "-//W3C//DTD SVG 1.1//EN" "http://www.w3.org/Graphics/SVG/1.1/DTD/svg11.dtd">
<!-- Creator: CorelDRAW 2020 (64-Bit) -->
<svg xmlns="http://www.w3.org/2000/svg" xml:space="preserve" width="305.558mm" height="343.849mm" version="1.1" style="shape-rendering:geometricPrecision; text-rendering:geometricPrecision; image-rendering:optimizeQuality; fill-rule:evenodd; clip-rule:evenodd"
viewBox="0 0 2049765 2306629"
 xmlns:xlink="http://www.w3.org/1999/xlink"
 xmlns:xodm="http://www.corel.com/coreldraw/odm/2003">
 <defs>
  <style type="text/css">
   <![CDATA[
    .str0 {stroke:#2B2A29;stroke-width:511;stroke-miterlimit:2.61313}
    .fil0 {fill:none}
   ]]>
  </style>
 </defs>
 <g id="Layer_x0020_1">
  <metadata id="CorelCorpID_0Corel-Layer"/>
  <path class="fil0 str0" d="M1738583 2306374l-1718184 0c-6053,0 -11265,-2383 -15224,-6963 -3959,-4580 -5561,-10081 -4689,-16071l23211 -159418 428743 75653 6760 -38316 -428743 -75653 45412 -257338c1712,-9701 9967,-16627 19818,-16627l30074 0c11084,0 20125,9041 20125,20125l0 97113c0,9869 6952,18147 16677,19827l180379 31181c7293,1260 12927,5964 15471,12914 2385,6518 8084,11626 15412,12919 10945,1931 21384,-5376 23316,-16322 966,-5473 -379,-10819 -3332,-15038 -1008,-1439 -2202,-2748 -3555,-3885 -5655,-4751 -8157,-11633 -6872,-18907l49520 -280454 428743 75653 6760 -38316 -428743 -75653 45413 -257338c1712,-9701 9967,-16627 19818,-16627l30074 0c11084,0 20125,9041 20125,20125l0 97113c0,9869 6953,18139 16677,19827l180389 31326c7289,1266 12917,5970 15457,12917 2384,6522 8084,11631 15414,12925 10945,1931 21384,-5376 23316,-16322 966,-5473 -379,-10819 -3332,-15038 -1008,-1439 -2203,-2748 -3556,-3885 -5654,-4751 -8157,-11632 -6873,-18906l49522 -280609 428743 75653 6760 -38316 -428743 -75653 45413 -257338c1712,-9701 9966,-16627 19818,-16627l30074 0c11084,0 20125,9041 20125,20125l0 97113c0,9868 6952,18147 16677,19827l180379 31181c7293,1260 12927,5964 15471,12914 2385,6518 8084,11626 15412,12919 10945,1931 21384,-5376 23316,-16322 966,-5473 -379,-10819 -3332,-15038 -1008,-1439 -2202,-2747 -3556,-3885 -5655,-4751 -8156,-11632 -6872,-18906l49522 -280609 428743 75653 6760 -38316 -428743 -75653 45413 -257338c1712,-9701 9966,-16627 19818,-16627l30074 0c11084,0 20125,9041 20125,20125l0 97113c0,9867 6952,18147 16677,19827l180379 31181c7293,1260 12927,5964 15471,12914 2385,6518 8084,11627 15412,12919 10945,1931 21384,-5377 23316,-16322 965,-5473 -379,-10820 -3332,-15038 -1007,-1439 -2202,-2748 -3556,-3885 -5654,-4751 -8156,-11632 -6872,-18906l101693 -576109c1713,-9701 9967,-16627 19818,-16627l63368 0 0 435366 38908 0 0 -435366 63367 0c10574,0 19461,8117 20072,18672l131251 2265869c335,5786 -1389,10916 -5337,15160 -3948,4244 -8947,6418 -14735,6418l-251907 0 0 -435366 -38908 0 0 435366z"/>
 </g>
</svg>
