<?xml version="1.0" encoding="UTF-8"?>
<!DOCTYPE svg PUBLIC "-//W3C//DTD SVG 1.1//EN" "http://www.w3.org/Graphics/SVG/1.1/DTD/svg11.dtd">
<!-- Creator: CorelDRAW 2020 (64-Bit) -->
<svg xmlns="http://www.w3.org/2000/svg" xml:space="preserve" width="90.0762mm" height="270.076mm" version="1.1" style="shape-rendering:geometricPrecision; text-rendering:geometricPrecision; image-rendering:optimizeQuality; fill-rule:evenodd; clip-rule:evenodd"
viewBox="0 0 176459 529077"
 xmlns:xlink="http://www.w3.org/1999/xlink"
 xmlns:xodm="http://www.corel.com/coreldraw/odm/2003">
 <defs>
  <style type="text/css">
   <![CDATA[
    .str0 {stroke:#1F1B20;stroke-width:149;stroke-miterlimit:2.61313}
    .fil0 {fill:none}
   ]]>
  </style>
 </defs>
 <g id="Layer_x0020_1">
  <metadata id="CorelCorpID_0Corel-Layer"/>
  <path class="fil0 str0" d="M176384 505299l-48779 0 0 -11362 48779 0 0 -145357 -48779 0 0 -11362 48779 -196 0 196 0 -145357 -48779 0 0 -11362 48779 0 0 -145357 -48779 0 0 -11362 48779 0 0 -17827c0,-3237 -2640,-5877 -5877,-5877l-164555 0c-3237,0 -5877,2640 -5877,5877l0 517174c0,3237 2640,5877 5877,5877l164555 0c3237,0 5877,-2640 5877,-5877l0 -17827"/>
 </g>
</svg>
