<?xml version="1.0" encoding="UTF-8"?>
<!DOCTYPE svg PUBLIC "-//W3C//DTD SVG 1.1//EN" "http://www.w3.org/Graphics/SVG/1.1/DTD/svg11.dtd">
<!-- Creator: CorelDRAW 2020 (64-Bit) -->
<svg xmlns="http://www.w3.org/2000/svg" xml:space="preserve" width="244.561mm" height="276.326mm" version="1.1" style="shape-rendering:geometricPrecision; text-rendering:geometricPrecision; image-rendering:optimizeQuality; fill-rule:evenodd; clip-rule:evenodd"
viewBox="0 0 4315863 4876432"
 xmlns:xlink="http://www.w3.org/1999/xlink"
 xmlns:xodm="http://www.corel.com/coreldraw/odm/2003">
 <defs>
  <style type="text/css">
   <![CDATA[
    .str0 {stroke:#2B2A29;stroke-width:1345;stroke-miterlimit:2.61313}
    .fil0 {fill:none}
   ]]>
  </style>
 </defs>
 <g id="Layer_x0020_1">
  <metadata id="CorelCorpID_0Corel-Layer"/>
  <path class="fil0 str0" d="M1008556 3942372l130271 -737789 1127891 199020 17783 -100798 -1127891 -199020 119467 -676976c4504,-25520 26220,-43741 52136,-43741l79115 0c29159,0 52942,23783 52942,52942l0 255476c0,25961 18292,47719 43871,52159l474548 82408c19174,3330 33980,15704 40663,33982 6272,17157 21267,30599 40550,34001 28793,5079 56255,-14143 61337,-42938 2541,-14397 -997,-28462 -8765,-39560 -2651,-3785 -5795,-7228 -9355,-10220 -14875,-12500 -21457,-30601 -18080,-49736l130276 -738197 1127891 199020 17783 -100798 -1127891 -199020 119467 -676976c4504,-25522 26219,-43741 52136,-43741l79115 0c29159,0 52942,23783 52942,52942l0 255476c0,25959 18288,47738 43871,52159l474522 82027c19184,3316 34006,15690 40698,33973 6275,17148 21267,30585 40543,33985 28793,5079 56255,-14143 61337,-42938 2541,-14397 -997,-28462 -8765,-39560 -2651,-3785 -5794,-7227 -9355,-10220 -14877,-12500 -21456,-30601 -18078,-49736l267524 -1515565c4505,-25520 26220,-43741 52136,-43741l166702 0 0 1145315 102355 0 0 -1145315 166699 0c27818,0 50796,21376 52804,49120l345281 4769203c1101,15210 -3653,28716 -14040,39881 -10387,11165 -23533,16883 -38762,16883l-662691 0 0 -1145315 -102355 0 0 1145315 -3443523 0c-15925,0 -29635,-6270 -40051,-18318 -10415,-12048 -14630,-26519 -12336,-42278l61062 -419381 1127891 199020 17783 -100798 -1127891 -199020 119466 -676978c4504,-25520 26220,-43741 52136,-43741l79115 0c29159,0 52942,23783 52942,52942l0 255476c0,25961 18288,47738 43871,52159l474522 82027c19184,3316 34006,15690 40698,33973 6275,17148 21267,30585 40543,33985 28793,5079 56255,-14143 61337,-42938 2541,-14397 -997,-28462 -8765,-39560 -2651,-3785 -5794,-7228 -9353,-10220 -14877,-12498 -21457,-30602 -18078,-49737z"/>
 </g>
</svg>
