<?xml version="1.0" encoding="UTF-8"?>
<!DOCTYPE svg PUBLIC "-//W3C//DTD SVG 1.1//EN" "http://www.w3.org/Graphics/SVG/1.1/DTD/svg11.dtd">
<!-- Creator: CorelDRAW 2020 (64-Bit) -->
<svg xmlns="http://www.w3.org/2000/svg" xml:space="preserve" width="183.566mm" height="208.826mm" version="1.1" style="shape-rendering:geometricPrecision; text-rendering:geometricPrecision; image-rendering:optimizeQuality; fill-rule:evenodd; clip-rule:evenodd"
viewBox="0 0 316130 359632"
 xmlns:xlink="http://www.w3.org/1999/xlink"
 xmlns:xodm="http://www.corel.com/coreldraw/odm/2003">
 <defs>
  <style type="text/css">
   <![CDATA[
    .str0 {stroke:#2B2A29;stroke-width:131;stroke-miterlimit:2.61313}
    .fil0 {fill:none}
   ]]>
  </style>
 </defs>
 <g id="Layer_x0020_1">
  <metadata id="CorelCorpID_0Corel-Layer"/>
  <path class="fil0 str0" d="M194855 201111l28083 4955 -1735 9837 -110068 -19422 -21332 120876 28083 4955 -1735 9837 -110068 -19422 -5958 40926c-224,1538 187,2950 1204,4126 1016,1176 2355,1788 3908,1788l230993 0 0 -111768 9989 0 0 111768 64670 0c1488,0 2769,-558 3783,-1648 1014,-1090 1513,-2411 1370,-3892l-33695 -349168c-260,-2701 -2439,-4793 -5153,-4793l-16268 0 0 111768 -9989 0 -173 -111768 173 0 -16268 0c-2529,0 -4648,1778 -5088,4269l-34726 196777"/>
 </g>
</svg>
