<?xml version="1.0" encoding="UTF-8"?>
<!DOCTYPE svg PUBLIC "-//W3C//DTD SVG 1.1//EN" "http://www.w3.org/Graphics/SVG/1.1/DTD/svg11.dtd">
<!-- Creator: CorelDRAW 2020 (64-Bit) -->
<svg xmlns="http://www.w3.org/2000/svg" xml:space="preserve" width="244.561mm" height="276.326mm" version="1.1" style="shape-rendering:geometricPrecision; text-rendering:geometricPrecision; image-rendering:optimizeQuality; fill-rule:evenodd; clip-rule:evenodd"
viewBox="0 0 2326193 2628332"
 xmlns:xlink="http://www.w3.org/1999/xlink"
 xmlns:xodm="http://www.corel.com/coreldraw/odm/2003">
 <defs>
  <style type="text/css">
   <![CDATA[
    .str0 {stroke:#2B2A29;stroke-width:725;stroke-miterlimit:2.61313}
    .fil0 {fill:none}
   ]]>
  </style>
 </defs>
 <g id="Layer_x0020_1">
  <metadata id="CorelCorpID_0Corel-Layer"/>
  <path class="fil0 str0" d="M1966168 362l-89851 0c-13969,0 -25673,9820 -28100,23576l-191794 1086822 155106 27369 -9585 54329 -607918 -107269 -117815 667611 155106 27369 -9585 54329 -607918 -107269 -117819 667611 155106 27369 -9585 54329 -607918 -107269 -32910 226041c-1237,8495 1035,16294 6649,22787 5614,6494 13009,9873 21587,9873l1856014 0 0 -617309 55168 0 0 617309 357180 0c8218,0 15294,-3082 20892,-9100 5599,-6018 8161,-13297 7568,-21495l-186102 -2570537c-1082,-14948 -13468,-26475 -28461,-26475l-89848 0 0 617309 -55168 0 -953 -617309 953 0z"/>
 </g>
</svg>
