<?xml version="1.0" encoding="UTF-8"?>
<!DOCTYPE svg PUBLIC "-//W3C//DTD SVG 1.1//EN" "http://www.w3.org/Graphics/SVG/1.1/DTD/svg11.dtd">
<!-- Creator: CorelDRAW 2020 (64-Bit) -->
<svg xmlns="http://www.w3.org/2000/svg" xml:space="preserve" width="183.566mm" height="208.803mm" version="1.1" style="shape-rendering:geometricPrecision; text-rendering:geometricPrecision; image-rendering:optimizeQuality; fill-rule:evenodd; clip-rule:evenodd"
viewBox="0 0 283816 322836"
 xmlns:xlink="http://www.w3.org/1999/xlink"
 xmlns:xodm="http://www.corel.com/coreldraw/odm/2003">
 <defs>
  <style type="text/css">
   <![CDATA[
    .str0 {stroke:#2B2A29;stroke-width:118;stroke-miterlimit:2.61313}
    .fil0 {fill:none}
   ]]>
  </style>
 </defs>
 <g id="Layer_x0020_1">
  <metadata id="CorelCorpID_0Corel-Layer"/>
  <path class="fil0 str0" d="M182675 136673l23438 -132782c395,-2236 2297,-3832 4568,-3832l14605 0 0 100344 8968 0 0 -100344 14605 0c2437,0 4392,1878 4626,4303l30251 313442c128,1329 -320,2516 -1230,3494 -910,978 -2062,1479 -3396,1479l-58060 0 0 -100344 -8968 0 0 100344 -207381 0c-1395,0 -2596,-549 -3509,-1605 -913,-1056 -1282,-2323 -1081,-3704l5350 -36743 98817 17437 1558 -8831 -98817 -17437 10467 -59312c395,-2236 2297,-3832 4568,-3832l6931 0c2555,0 4638,2084 4638,4638l0 22383c0,2275 1602,4182 3844,4570l41574 7187c1681,291 2979,1375 3566,2976 550,1502 1863,2680 3552,2978 2523,445 4929,-1239 5374,-3762 223,-1261 -87,-2494 -768,-3466 -232,-332 -508,-633 -819,-895 -1303,-1095 -1880,-2681 -1584,-4358l11413 -64639 98817 17437 1558 -8831 -98817 -17437 10467 -59311c395,-2236 2297,-3832 4568,-3832l6931 0c2555,0 4638,2084 4638,4638l0 22383c0,2275 1603,4181 3844,4570l41576 7220c1680,292 2977,1376 3563,2977 549,1503 1863,2681 3553,2979 2523,445 4929,-1239 5374,-3762 223,-1261 -87,-2494 -768,-3466 -232,-332 -508,-633 -820,-895 -1303,-1095 -1880,-2681 -1584,-4357"/>
 </g>
</svg>
