<?xml version="1.0" encoding="UTF-8"?>
<!DOCTYPE svg PUBLIC "-//W3C//DTD SVG 1.1//EN" "http://www.w3.org/Graphics/SVG/1.1/DTD/svg11.dtd">
<!-- Creator: CorelDRAW 2020 (64-Bit) -->
<svg xmlns="http://www.w3.org/2000/svg" xml:space="preserve" width="305.558mm" height="343.826mm" version="1.1" style="shape-rendering:geometricPrecision; text-rendering:geometricPrecision; image-rendering:optimizeQuality; fill-rule:evenodd; clip-rule:evenodd"
viewBox="0 0 2770805 3117820"
 xmlns:xlink="http://www.w3.org/1999/xlink"
 xmlns:xodm="http://www.corel.com/coreldraw/odm/2003">
 <defs>
  <style type="text/css">
   <![CDATA[
    .str0 {stroke:#2B2A29;stroke-width:691;stroke-miterlimit:2.61313}
    .fil0 {fill:none}
   ]]>
  </style>
 </defs>
 <g id="Layer_x0020_1">
  <metadata id="CorelCorpID_0Corel-Layer"/>
  <path class="fil0 str0" d="M2350159 3117475l0 -588514 52594 0 0 588514 340519 0c7835,0 14580,-2938 19918,-8675 5337,-5737 7667,-12670 7215,-20493l-177421 -3062721c-825,-14264 -12842,-25240 -27133,-25240l-85656 0 0 588514 -52594 0 -909 -588514 909 0 -85660 0c-13315,0 -24476,9364 -26790,22476l-182847 1036126 147871 26092 -9138 51795 -579561 -102265 -112319 636469 147871 26092 -9138 51795 -579561 -102265 -112319 636469 147871 26092 -9138 51795 -579561 -102265 -112323 636469 147871 26092 -9138 51795 -579561 -102265 -31374 215497c-1179,8099 987,15534 6339,21724 5352,6191 12402,9413 20580,9413l2322585 0z"/>
 </g>
</svg>
